<svg preserveAspectRatio="xMidYMid meet" data-bbox="58.063 53.195 83.873 93.609" xmlns="http://www.w3.org/2000/svg" width="200" height="200" viewBox="58.063 53.195 83.873 93.609" data-type="color" role="presentation" aria-hidden="true" aria-label=""><defs><style>#comp-k2efqkxy svg [data-color="1"] {fill: #2E3238;}</style></defs>
    <g>
        <path fill="#3F5C58" d="M141.936 123.279c0-21.993-17.026-40.05-38.584-41.767V53.195h-6v28.281c-21.889 1.377-39.289 19.573-39.289 41.803v3h16.801c2.382 11.696 12.747 20.525 25.136 20.525s22.754-8.829 25.136-20.525h16.8v-3zm-41.935 17.526c-9.061 0-16.687-6.171-18.951-14.525h37.901c-2.263 8.353-9.889 14.525-18.95 14.525zm-35.813-20.526C65.716 101.86 81.195 87.342 100 87.342s34.283 14.518 35.812 32.937H64.188z" data-color="1"></path>
    </g>
</svg>