<svg preserveAspectRatio="xMidYMid meet" data-bbox="65.1 45.6 69.8 108.8" xmlns="http://www.w3.org/2000/svg" width="200" height="200" viewBox="65.1 45.6 69.8 108.8" data-type="color" role="presentation" aria-hidden="true" aria-label=""><defs><style>#comp-k35z35qg svg [data-color="1"] {fill: #2E3238;}</style></defs>
    <g>
        <path d="M112.82 102.55l4.242 4.242-29.768 29.77-4.243-4.243 29.769-29.77z" fill="#3f5c58" data-color="1"></path>
        <path d="M97.1 110.1a6.5 6.5 0 11-13 0 6.5 6.5 0 0113 0z" clip-rule="evenodd" fill-rule="evenodd" fill="#3f5c58" data-color="1"></path>
        <path d="M116.2 129.3a6.5 6.5 0 11-13 0 6.5 6.5 0 0113 0z" clip-rule="evenodd" fill-rule="evenodd" fill="#3f5c58" data-color="1"></path>
        <path fill="#3f5c58" d="M134.9 154.4H65.1V74.3L100 45.6l34.9 28.7v80.1zm-63.8-6h57.8V77.1L100 53.3 71.1 77.1v71.3z" data-color="1"></path>
        <path fill="#3f5c58" d="M100 93.9c-6.9 0-12.6-5.6-12.6-12.6S93 68.7 100 68.7c6.9 0 12.6 5.6 12.6 12.6s-5.7 12.6-12.6 12.6zm0-19.1c-3.6 0-6.6 2.9-6.6 6.6S96.3 88 100 88s6.6-2.9 6.6-6.6-3-6.6-6.6-6.6z" data-color="1"></path>
    </g>
</svg>