<svg preserveAspectRatio="xMidYMid meet" data-bbox="24.75 48.75 150.5 102.499" xmlns="http://www.w3.org/2000/svg" width="200" height="200" viewBox="24.75 48.75 150.5 102.499" data-type="color" role="presentation" aria-hidden="true" aria-label=""><defs><style>#comp-k2efs9ne svg [data-color="1"] {fill: #2E3238;}</style></defs>
    <g>
        <path fill="#3F5C58" d="M175.25 68.501v-6h-15.498V48.75h-6V62.5h-16.5V48.75h-6V62.5h-18V48.75h-6V62.5H92.25V48.75h-6V62.5h-18V48.75h-6V62.5h-16.5V48.75h-6V62.5h-15v6h15V85h-15v6h15v18h-15v6h15v16.5h-15v6h15v13.749h6V137.5h16.5v13.749h6V137.5h18v13.749h6V137.5h15.001v13.749h6V137.5h18v13.749h6V137.5h16.5v13.749h6V137.5h15.498v-6h-15.498V115h15.498v-6h-15.498V91h15.498v-6h-15.498V68.5h15.499zm-129.5 0h108.001v63H45.75v-63z" data-color="1"></path>
        <path fill="#3F5C58" d="M77.917 100.001l23.335 23.335 23.332-23.335-23.332-23.333-23.335 23.333zm23.335 14.85L86.401 100l14.851-14.849L116.1 100l-14.848 14.851z" data-color="1"></path>
    </g>
</svg>